# xmcd CD database file
#
# Track frame offsets:
#	150
#	15947
#	33047
#	50044
#	74509
#	100815
#	107589
#	125112
#	140151
#	158760
#	183715
#	200554
#	211400
#	225152
#	237163
#	243734
#	250459
#	272067
#	293568
#	306896
#	320843
#
# Disc length: 4423 seconds
#
# Revision: 0
# Processed by: cddbd v1.5.2PL0 Copyright (c) Steve Scherf et al.
# Submitted via: CDex 1.70beta2
#
DISCID=39114515
DTITLE=Pulsa - Little Boy Bluea
DYEAR=2012
DGENRE=Blues
TTITLE0=Bastards Of The Universe 
TTITLE1=MacGywer Blues
TTITLE2=Memory Lane Revisited
TTITLE3=A Ride In Your Car
TTITLE4=Hornyman's Tea  
TTITLE5=Duckburg Bridge  
TTITLE6=Little Boy Blues 
TTITLE7=At Eero's  
TTITLE8=All Male Rockers 
TTITLE9=Struggle   
TTITLE10=One-Armed Rockin' Chair
TTITLE11=I Had Trouble
TTITLE12=Serious Songwriter 
TTITLE13=Ice Blue Eyes
TTITLE14=Rock'n'roll Hangover (Demo 1)
TTITLE15=Rock'n'roll Hangover (Demo 2)
TTITLE16=Hornyman's Tea (Demo 1)
TTITLE17=Hornyman's Tea (Demo 2)
TTITLE18=Bastards Of The Universe (Demo 1)
TTITLE19=Bastards Of The Universe (Demo 2)
TTITLE20=Ice Blue Eyes (Demo)
EXTD=YEAR: 2012
EXTT0=
EXTT1=
EXTT2=
EXTT3=
EXTT4=
EXTT5=
EXTT6=
EXTT7=
EXTT8=
EXTT9=
EXTT10=
EXTT11=
EXTT12=
EXTT13=
EXTT14=
EXTT15=
EXTT16=
EXTT17=
EXTT18=
EXTT19=
EXTT20=
PLAYORDER=
